<svg xmlns="http://www.w3.org/2000/svg" viewBox="0 0 1200 900" role="img" aria-label="Text-free GlimmerTales reference illustration"><title>Text-free GlimmerTales reference illustration</title><defs><radialGradient id="sky" cx="50%" cy="18%" r="80%"><stop offset="0" stop-color="#334465"/><stop offset="1" stop-color="#111622"/></radialGradient><filter id="glow" x="-50%" y="-50%" width="200%" height="200%"><feGaussianBlur stdDeviation="10" result="blur"/><feMerge><feMergeNode in="blur"/><feMergeNode in="SourceGraphic"/></feMerge></filter></defs><rect width="1200" height="900" fill="url(#sky)"/><circle cx="972" cy="128" r="56" fill="#F4DDA2" opacity=".86"/><circle cx="140" cy="120" r="3" fill="#f8e7b8"/><circle cx="270" cy="220" r="2" fill="#f8e7b8"/><circle cx="750" cy="175" r="2.5" fill="#f8e7b8"/><path d="M0 645 C185 555 335 620 520 535 C760 420 945 570 1200 470 L1200 900 L0 900z" fill="#253b35"/><path d="M0 725 C215 665 360 720 560 650 C785 575 970 700 1200 620 L1200 900 L0 900z" fill="#162a27"/><ellipse cx="600" cy="820" rx="530" ry="95" fill="#57412d" opacity=".66"/><ellipse cx="650" cy="640" rx="330" ry="105" fill="#314c61" opacity=".7"/><path d="M330 635 C500 535 780 535 960 635" stroke="#7a5b3e" stroke-width="36" fill="none" stroke-linecap="round"/><path d="M342 630 C510 552 775 552 948 630" stroke="#e0b768" stroke-width="5" fill="none" opacity=".55"/><g><g transform="translate(505 535) scale(1.55)"><ellipse cx="0" cy="42" rx="34" ry="48" fill="#E99632"/><ellipse cx="0" cy="54" rx="20" ry="30" fill="#F3D6A7"/><circle cx="0" cy="-14" r="35" fill="#E99632"/><circle cx="-23" cy="-42" r="13" fill="#E99632"/><circle cx="23" cy="-42" r="13" fill="#E99632"/><circle cx="-23" cy="-42" r="7" fill="#E7A58E"/><circle cx="23" cy="-42" r="7" fill="#E7A58E"/><ellipse cx="0" cy="0" rx="20" ry="15" fill="#F3D6A7"/><path d="M-27 -25 q13 7 25 0 M2 -28 q16 6 28 0 M-31 -8 q12 4 22 1 M9 -9 q12 4 23 -1" stroke="#2A1C17" stroke-width="4" fill="none" stroke-linecap="round"/><circle cx="-12" cy="-17" r="8" fill="#FFF7EA"/><circle cx="13" cy="-17" r="8" fill="#FFF7EA"/><circle cx="-9" cy="-15" r="4" fill="#6A3C1F"/><circle cx="10" cy="-15" r="4" fill="#6A3C1F"/><path d="M0 -4 l7 5 l-7 5 l-7 -5z" fill="#D96B4A"/><path d="M-8 11 Q0 17 8 11" stroke="#2A1C17" stroke-width="2" fill="none" stroke-linecap="round"/><path d="M31 52 q31 14 21 49" stroke="#E99632" stroke-width="11" fill="none" stroke-linecap="round"/></g><g transform="translate(720 555) scale(1.1)"><ellipse cx="0" cy="10" rx="24" ry="28" fill="#181312"/><ellipse cx="-13" cy="16" rx="17" ry="24" fill="#D9412E" transform="rotate(-18 -13 16)"/><ellipse cx="13" cy="16" rx="17" ry="24" fill="#D9412E" transform="rotate(18 13 16)"/><circle cx="-18" cy="10" r="5" fill="#181312"/><circle cx="4" cy="28" r="5" fill="#181312"/><circle cx="17" cy="8" r="5" fill="#181312"/><circle cx="-2" cy="-15" r="22" fill="#181312"/><ellipse cx="-2" cy="-8" rx="15" ry="13" fill="#F2A68F"/><circle cx="-10" cy="-18" r="7" fill="#FFF7EA"/><circle cx="8" cy="-18" r="7" fill="#FFF7EA"/><circle cx="-8" cy="-17" r="3" fill="#5B351E"/><circle cx="10" cy="-17" r="3" fill="#5B351E"/><circle cx="-14" cy="-5" r="4" fill="#F4A0A0" opacity=".75"/><circle cx="10" cy="-5" r="4" fill="#F4A0A0" opacity=".75"/><path d="M-8 2 Q-1 8 8 1" fill="none" stroke="#321" stroke-width="2" stroke-linecap="round"/><path d="M-12 -35 Q-22 -49 -25 -57" fill="none" stroke="#181312" stroke-width="3" stroke-linecap="round"/><path d="M9 -35 Q20 -49 23 -57" fill="none" stroke="#181312" stroke-width="3" stroke-linecap="round"/><circle cx="-26" cy="-58" r="4" fill="#181312"/><circle cx="24" cy="-58" r="4" fill="#181312"/></g></g><rect x="70" y="76" width="520" height="190" rx="38" fill="#201a23" opacity=".48" stroke="#d9b56b" stroke-width="2" stroke-dasharray="8 10"/></svg>