<svg xmlns="http://www.w3.org/2000/svg" viewBox="0 0 1200 900" role="img" aria-label="Text-free GlimmerTales reference illustration"><title>Text-free GlimmerTales reference illustration</title><defs><radialGradient id="sky" cx="50%" cy="18%" r="80%"><stop offset="0" stop-color="#334465"/><stop offset="1" stop-color="#111622"/></radialGradient><filter id="glow" x="-50%" y="-50%" width="200%" height="200%"><feGaussianBlur stdDeviation="10" result="blur"/><feMerge><feMergeNode in="blur"/><feMergeNode in="SourceGraphic"/></feMerge></filter></defs><rect width="1200" height="900" fill="url(#sky)"/><circle cx="972" cy="128" r="56" fill="#F4DDA2" opacity=".86"/><circle cx="140" cy="120" r="3" fill="#f8e7b8"/><circle cx="270" cy="220" r="2" fill="#f8e7b8"/><circle cx="750" cy="175" r="2.5" fill="#f8e7b8"/><path d="M0 645 C185 555 335 620 520 535 C760 420 945 570 1200 470 L1200 900 L0 900z" fill="#253b35"/><path d="M0 725 C215 665 360 720 560 650 C785 575 970 700 1200 620 L1200 900 L0 900z" fill="#162a27"/><ellipse cx="600" cy="820" rx="530" ry="95" fill="#57412d" opacity=".66"/><ellipse cx="650" cy="640" rx="330" ry="105" fill="#314c61" opacity=".7"/><path d="M330 635 C500 535 780 535 960 635" stroke="#7a5b3e" stroke-width="36" fill="none" stroke-linecap="round"/><path d="M342 630 C510 552 775 552 948 630" stroke="#e0b768" stroke-width="5" fill="none" opacity=".55"/><path d="M420 560 C540 505 710 505 830 560" stroke="#f4dda2" stroke-width="5" fill="none" opacity=".38"/><g><g transform="translate(520 520) scale(2.0)"><path d="M-30 -5 q-51.0 35 -78.0 45" stroke="#3C3835" stroke-width="7" fill="none" stroke-linecap="round"/><path d="M-24 8 q-40.8 32 -62.400000000000006 43" stroke="#3C3835" stroke-width="7" fill="none" stroke-linecap="round"/><path d="M-18 20 q-30.599999999999998 29 -46.800000000000004 41" stroke="#3C3835" stroke-width="7" fill="none" stroke-linecap="round"/><path d="M-10 30 q-17.0 25 -26.0 38" stroke="#3C3835" stroke-width="7" fill="none" stroke-linecap="round"/><path d="M30 -5 q51.0 35 78.0 45" stroke="#3C3835" stroke-width="7" fill="none" stroke-linecap="round"/><path d="M24 8 q40.8 32 62.400000000000006 43" stroke="#3C3835" stroke-width="7" fill="none" stroke-linecap="round"/><path d="M18 20 q30.599999999999998 29 46.800000000000004 41" stroke="#3C3835" stroke-width="7" fill="none" stroke-linecap="round"/><path d="M10 30 q17.0 25 26.0 38" stroke="#3C3835" stroke-width="7" fill="none" stroke-linecap="round"/><ellipse cx="0" cy="15" rx="34" ry="30" fill="#3C3835"/><ellipse cx="0" cy="10" rx="31" ry="26" fill="#5D5752" opacity=".55"/><circle cx="-11" cy="5" r="10" fill="#EEE2D0"/><circle cx="12" cy="5" r="10" fill="#EEE2D0"/><circle cx="-8" cy="7" r="4" fill="#181312"/><circle cx="9" cy="7" r="4" fill="#181312"/><path d="M-9 23 Q1 31 13 22" stroke="#D79C83" stroke-width="3" fill="none" stroke-linecap="round"/></g><g transform="translate(730 548) scale(1.2)"><ellipse cx="0" cy="10" rx="24" ry="28" fill="#181312"/><ellipse cx="-13" cy="16" rx="17" ry="24" fill="#D9412E" transform="rotate(-18 -13 16)"/><ellipse cx="13" cy="16" rx="17" ry="24" fill="#D9412E" transform="rotate(18 13 16)"/><circle cx="-18" cy="10" r="5" fill="#181312"/><circle cx="4" cy="28" r="5" fill="#181312"/><circle cx="17" cy="8" r="5" fill="#181312"/><circle cx="-2" cy="-15" r="22" fill="#181312"/><ellipse cx="-2" cy="-8" rx="15" ry="13" fill="#F2A68F"/><circle cx="-10" cy="-18" r="7" fill="#FFF7EA"/><circle cx="8" cy="-18" r="7" fill="#FFF7EA"/><circle cx="-8" cy="-17" r="3" fill="#5B351E"/><circle cx="10" cy="-17" r="3" fill="#5B351E"/><circle cx="-14" cy="-5" r="4" fill="#F4A0A0" opacity=".75"/><circle cx="10" cy="-5" r="4" fill="#F4A0A0" opacity=".75"/><path d="M-8 2 Q-1 8 8 1" fill="none" stroke="#321" stroke-width="2" stroke-linecap="round"/><path d="M-12 -35 Q-22 -49 -25 -57" fill="none" stroke="#181312" stroke-width="3" stroke-linecap="round"/><path d="M9 -35 Q20 -49 23 -57" fill="none" stroke="#181312" stroke-width="3" stroke-linecap="round"/><circle cx="-26" cy="-58" r="4" fill="#181312"/><circle cx="24" cy="-58" r="4" fill="#181312"/></g></g><rect x="92" y="642" width="1016" height="180" rx="42" fill="#201a23" opacity=".55" stroke="#d9b56b" stroke-width="2" stroke-dasharray="8 10"/></svg>