<svg xmlns="http://www.w3.org/2000/svg" viewBox="0 0 1200 900" role="img" aria-label="Text-free Mini Dream Time reference illustration"><title>Text-free Mini Dream Time reference illustration</title><defs>
  <radialGradient id="skyBubble" cx="35%" cy="18%" r="95%"><stop offset="0" stop-color="#BFE9FF"/><stop offset="0.45" stop-color="#BCA7FF"/><stop offset="1" stop-color="#6157B8"/></radialGradient>
  <linearGradient id="meadow" x1="0" y1="0" x2="1" y2="1"><stop offset="0" stop-color="#8FE7A6"/><stop offset="1" stop-color="#47B883"/></linearGradient>
  <linearGradient id="meadowDark" x1="0" y1="0" x2="1" y2="1"><stop offset="0" stop-color="#5CCB8C"/><stop offset="1" stop-color="#28896C"/></linearGradient>
  <radialGradient id="moonGlow" cx="50%" cy="50%" r="60%"><stop offset="0" stop-color="#FFF6B8"/><stop offset="1" stop-color="#FFD56E"/></radialGradient>
  <linearGradient id="daisyShell" x1="0" y1="0" x2="1" y2="1"><stop offset="0" stop-color="#FF7A8A"/><stop offset="0.55" stop-color="#F94E5F"/><stop offset="1" stop-color="#D92D45"/></linearGradient>
  <linearGradient id="dinoSkin" x1="0" y1="0" x2="1" y2="1"><stop offset="0" stop-color="#A9F36E"/><stop offset="0.55" stop-color="#6ED95E"/><stop offset="1" stop-color="#39A870"/></linearGradient>
  <linearGradient id="pipFur" x1="0" y1="0" x2="1" y2="1"><stop offset="0" stop-color="#FFC05E"/><stop offset="0.52" stop-color="#FF9238"/><stop offset="1" stop-color="#E46E2E"/></linearGradient>
  <linearGradient id="itsyFuzz" x1="0" y1="0" x2="1" y2="1"><stop offset="0" stop-color="#8A7CE8"/><stop offset="0.55" stop-color="#6558C6"/><stop offset="1" stop-color="#4A3B99"/></linearGradient>
  <filter id="softShadow" x="-40%" y="-40%" width="180%" height="180%"><feDropShadow dx="0" dy="14" stdDeviation="12" flood-color="#2C2156" flood-opacity="0.28"/></filter>
  <filter id="glow" x="-60%" y="-60%" width="220%" height="220%"><feGaussianBlur stdDeviation="9" result="blur"/><feMerge><feMergeNode in="blur"/><feMergeNode in="SourceGraphic"/></feMerge></filter>
  <pattern id="sprinkles" width="80" height="80" patternUnits="userSpaceOnUse"><circle cx="16" cy="14" r="2" fill="#FFFFFF" opacity=".35"/><circle cx="66" cy="26" r="2.4" fill="#FFE48A" opacity=".35"/><circle cx="42" cy="62" r="1.9" fill="#FF9BC3" opacity=".35"/></pattern>
</defs><rect width="1200" height="900" fill="url(#skyBubble)"/><rect width="1200" height="900" fill="url(#sprinkles)" opacity=".55"/><circle cx="990" cy="120" r="58" fill="url(#moonGlow)" opacity=".92" filter="url(#glow)"/><path d="M0 602 C180 520 340 584 520 505 C760 405 960 535 1200 445 L1200 900 L0 900z" fill="url(#meadow)"/><path d="M0 724 C205 650 375 715 590 642 C810 565 980 690 1200 615 L1200 900 L0 900z" fill="url(#meadowDark)"/><ellipse cx="600" cy="815" rx="520" ry="88" fill="#FFF1A6" opacity=".30"/><g><g transform="translate(600 430) scale(3)" filter="url(#softShadow)">
    <path d="M-33 11 C-47 30 -42 59 -17 67 C-8 45 -4 25 0 5 C-12 2 -24 3 -33 11z" fill="url(#daisyShell)"/><path d="M33 11 C47 30 42 59 17 67 C8 45 4 25 0 5 C12 2 24 3 33 11z" fill="url(#daisyShell)"/>
    <ellipse cx="0" cy="28" rx="30" ry="39" fill="#242029"/><ellipse cx="-1" cy="14" rx="18" ry="16" fill="#FFD6C7"/>
    <circle cx="-21" cy="24" r="5" fill="#242029"/><circle cx="5" cy="45" r="5" fill="#242029"/><circle cx="21" cy="24" r="5" fill="#242029"/>
    <circle cx="0" cy="-18" r="27" fill="#242029"/><ellipse cx="0" cy="-10" rx="18" ry="15" fill="#FFD6C7"/>
    <g><ellipse cx="-10" cy="-21" rx="9.35" ry="11.049999999999999" fill="#FFFDF5"/><circle cx="-8.3" cy="-20.15" r="4.25" fill="#5B351E"/><circle cx="-5.75" cy="-24.4" r="1.87" fill="#FFFFFF"/></g><g><ellipse cx="11" cy="-21" rx="9.35" ry="11.049999999999999" fill="#FFFDF5"/><circle cx="12.7" cy="-20.15" r="4.25" fill="#5B351E"/><circle cx="15.25" cy="-24.4" r="1.87" fill="#FFFFFF"/></g><circle cx="-15" cy="-4" r="4.5" fill="#FF9AB5" opacity=".75"/><circle cx="15" cy="-4" r="4.5" fill="#FF9AB5" opacity=".75"/><path d="M-8 4 Q0 10 9 3" fill="none" stroke="#5B351E" stroke-width="2.5" stroke-linecap="round"/>
    <path d="M-12 -43 Q-25 -56 -29 -66" stroke="#242029" stroke-width="4" fill="none" stroke-linecap="round"/><path d="M12 -43 Q25 -56 29 -66" stroke="#242029" stroke-width="4" fill="none" stroke-linecap="round"/><circle cx="-30" cy="-67" r="5" fill="#242029"/><circle cx="30" cy="-67" r="5" fill="#242029"/>
    <path d="M-20 48 q-22 9 -28 28 M20 48 q22 9 28 28" stroke="#242029" stroke-width="6" fill="none" stroke-linecap="round"/>
    <path d="M-22 -38 q-8 -10 -20 -10 M22 -38 q8 -10 20 -10" stroke="#242029" stroke-width="5" fill="none" stroke-linecap="round"/>
    <ellipse cx="-12" cy="-42" rx="8" ry="4" fill="#FFFFFF" opacity=".16"/>
  </g></g><rect x="70" y="76" width="520" height="190" rx="42" fill="#FFFFFF" opacity=".30" stroke="#FFF2A0" stroke-width="2" stroke-dasharray="10 11"/></svg>