<svg xmlns="http://www.w3.org/2000/svg" viewBox="0 0 1200 900" role="img" aria-label="Text-free GlimmerTales illustration"><title>Text-free GlimmerTales illustration</title><defs><radialGradient id="sky" cx="50%" cy="20%" r="80%"><stop offset="0" stop-color="#304265"/><stop offset="1" stop-color="#151625"/></radialGradient><filter id="soft"><feGaussianBlur stdDeviation="0.25"/></filter></defs><rect width="1200" height="900" fill="#6AA7D8"/><circle cx="980" cy="120" r="70" fill="#F7D36D" opacity=".85"/><path d="M0 630 C180 540 320 610 510 520 C760 405 940 560 1200 455 L1200 900 L0 900z" fill="#4E8E61"/><path d="M0 715 C200 660 360 715 560 650 C780 575 960 690 1200 610 L1200 900 L0 900z" fill="#2E6E49"/><ellipse cx="600" cy="815" rx="520" ry="95" fill="#8B6840" opacity=".55"/><g opacity=".9"><circle cx="120" cy="760" r="22" fill="#C86A6A"/><circle cx="1010" cy="735" r="20" fill="#B87A56"/><circle cx="1080" cy="795" r="24" fill="#6F7D3B"/><circle cx="190" cy="805" r="28" fill="#7B5D8C"/></g><g><g class="daisy" transform="translate(600 430) scale(3.2)"><ellipse cx="0" cy="10" rx="24" ry="28" fill="#181312"/><ellipse cx="-13" cy="16" rx="17" ry="24" fill="#D9412E" transform="rotate(-18 -13 16)"/><ellipse cx="13" cy="16" rx="17" ry="24" fill="#D9412E" transform="rotate(18 13 16)"/><circle cx="-18" cy="10" r="5" fill="#181312"/><circle cx="4" cy="28" r="5" fill="#181312"/><circle cx="17" cy="8" r="5" fill="#181312"/><circle cx="-2" cy="-15" r="22" fill="#181312"/><ellipse cx="-2" cy="-8" rx="15" ry="13" fill="#F2A68F"/><circle cx="-10" cy="-18" r="7" fill="#FFF7EA"/><circle cx="8" cy="-18" r="7" fill="#FFF7EA"/><circle cx="-8" cy="-17" r="3" fill="#5B351E"/><circle cx="10" cy="-17" r="3" fill="#5B351E"/><circle cx="-14" cy="-5" r="4" fill="#F4A0A0" opacity=".75"/><circle cx="10" cy="-5" r="4" fill="#F4A0A0" opacity=".75"/><path d="M-8 2 Q-1 8 8 1" fill="none" stroke="#321" stroke-width="2" stroke-linecap="round"/><path d="M-12 -35 Q-22 -49 -25 -57" fill="none" stroke="#181312" stroke-width="3" stroke-linecap="round"/><path d="M9 -35 Q20 -49 23 -57" fill="none" stroke="#181312" stroke-width="3" stroke-linecap="round"/><circle cx="-26" cy="-58" r="4" fill="#181312"/><circle cx="24" cy="-58" r="4" fill="#181312"/><path d="M-22 16 q-20 8 -24 22" stroke="#181312" stroke-width="4" fill="none" stroke-linecap="round"/><path d="M21 15 q19 7 24 21" stroke="#181312" stroke-width="4" fill="none" stroke-linecap="round"/><path d="M-12 36 q-8 12 -7 22" stroke="#181312" stroke-width="4" fill="none" stroke-linecap="round"/><path d="M14 36 q8 12 6 22" stroke="#181312" stroke-width="4" fill="none" stroke-linecap="round"/></g></g><rect x="86" y="86" width="470" height="220" rx="42" fill="#201A23" opacity=".52" stroke="#D9B56B" stroke-width="2" stroke-dasharray="8 10"/></svg>