<svg xmlns="http://www.w3.org/2000/svg" viewBox="0 0 1200 900" role="img" aria-label="Text-free GlimmerTales illustration"><title>Text-free GlimmerTales illustration</title><defs><radialGradient id="sky" cx="50%" cy="20%" r="80%"><stop offset="0" stop-color="#304265"/><stop offset="1" stop-color="#151625"/></radialGradient><filter id="soft"><feGaussianBlur stdDeviation="0.25"/></filter></defs><rect width="1200" height="900" fill="#6AA7D8"/><circle cx="980" cy="120" r="70" fill="#F7D36D" opacity=".85"/><path d="M0 630 C180 540 320 610 510 520 C760 405 940 560 1200 455 L1200 900 L0 900z" fill="#4E8E61"/><path d="M0 715 C200 660 360 715 560 650 C780 575 960 690 1200 610 L1200 900 L0 900z" fill="#2E6E49"/><ellipse cx="600" cy="815" rx="520" ry="95" fill="#8B6840" opacity=".55"/><g opacity=".9"><circle cx="120" cy="760" r="22" fill="#C86A6A"/><circle cx="1010" cy="735" r="20" fill="#B87A56"/><circle cx="1080" cy="795" r="24" fill="#6F7D3B"/><circle cx="190" cy="805" r="28" fill="#7B5D8C"/></g><g><g class="dino" transform="translate(555 430) scale(2.25)"><ellipse cx="18" cy="40" rx="54" ry="70" fill="#78B83E"/><ellipse cx="18" cy="55" rx="30" ry="48" fill="#D9C46D" opacity=".9"/><ellipse cx="22" cy="-34" rx="64" ry="45" fill="#78B83E"/><ellipse cx="52" cy="-28" rx="42" ry="33" fill="#78B83E"/><circle cx="-25" cy="-35" r="8" fill="#3F7D37" opacity=".75"/><circle cx="8" cy="-72" r="7" fill="#3F7D37" opacity=".65"/><circle cx="48" cy="9" r="9" fill="#3F7D37" opacity=".65"/><circle cx="-15" cy="35" r="7" fill="#3F7D37" opacity=".65"/><path d="M-38 -76 l13 -24 l16 24z M-4 -83 l15 -26 l16 26z M31 -79 l14 -25 l16 25z" fill="#E46D2D"/><path d="M-35 94 q-9 21 -24 23" stroke="#78B83E" stroke-width="20" fill="none" stroke-linecap="round"/><path d="M64 94 q12 20 30 23" stroke="#78B83E" stroke-width="20" fill="none" stroke-linecap="round"/><ellipse cx="-44" cy="120" rx="19" ry="9" fill="#F0E2B8"/><ellipse cx="92" cy="120" rx="19" ry="9" fill="#F0E2B8"/><circle cx="0" cy="-58" r="13" fill="#FFF7EA"/><circle cx="45" cy="-56" r="13" fill="#FFF7EA"/><circle cx="4" cy="-56" r="6" fill="#68401F"/><circle cx="41" cy="-55" r="6" fill="#68401F"/><ellipse cx="65" cy="-30" rx="5" ry="8" fill="#3A5D2A"/><ellipse cx="83" cy="-27" rx="5" ry="8" fill="#3A5D2A"/><path d="M30 -15 Q49 4 78 -10" fill="none" stroke="#3B271A" stroke-width="5" stroke-linecap="round"/><path d="M-27 28 q-30 8 -38 30" stroke="#78B83E" stroke-width="14" fill="none" stroke-linecap="round"/><path d="M61 28 q28 10 40 30" stroke="#78B83E" stroke-width="14" fill="none" stroke-linecap="round"/><path d="M65 48 q66 19 92 72" stroke="#78B83E" stroke-width="25" fill="none" stroke-linecap="round"/></g></g><rect x="86" y="86" width="470" height="220" rx="42" fill="#201A23" opacity=".52" stroke="#D9B56B" stroke-width="2" stroke-dasharray="8 10"/></svg>