<svg xmlns="http://www.w3.org/2000/svg" viewBox="0 0 1200 900" role="img" aria-label="Text-free GlimmerTales illustration"><title>Text-free GlimmerTales illustration</title><defs><radialGradient id="sky" cx="50%" cy="20%" r="80%"><stop offset="0" stop-color="#304265"/><stop offset="1" stop-color="#151625"/></radialGradient><filter id="soft"><feGaussianBlur stdDeviation="0.25"/></filter></defs><rect width="1200" height="900" fill="#6AA7D8"/><circle cx="980" cy="120" r="70" fill="#F7D36D" opacity=".85"/><path d="M0 630 C180 540 320 610 510 520 C760 405 940 560 1200 455 L1200 900 L0 900z" fill="#4E8E61"/><path d="M0 715 C200 660 360 715 560 650 C780 575 960 690 1200 610 L1200 900 L0 900z" fill="#2E6E49"/><ellipse cx="600" cy="815" rx="520" ry="95" fill="#8B6840" opacity=".55"/><g opacity=".9"><circle cx="120" cy="760" r="22" fill="#C86A6A"/><circle cx="1010" cy="735" r="20" fill="#B87A56"/><circle cx="1080" cy="795" r="24" fill="#6F7D3B"/><circle cx="190" cy="805" r="28" fill="#7B5D8C"/></g><g><g class="itsy" transform="translate(600 430) scale(3.7)"><path d="M-30 -5 q-51.0 35 -78.0 45" stroke="#3C3835" stroke-width="7" fill="none" stroke-linecap="round"/><path d="M-24 8 q-40.8 32 -62.400000000000006 43" stroke="#3C3835" stroke-width="7" fill="none" stroke-linecap="round"/><path d="M-18 20 q-30.599999999999998 29 -46.800000000000004 41" stroke="#3C3835" stroke-width="7" fill="none" stroke-linecap="round"/><path d="M-10 30 q-17.0 25 -26.0 38" stroke="#3C3835" stroke-width="7" fill="none" stroke-linecap="round"/><path d="M30 -5 q51.0 35 78.0 45" stroke="#3C3835" stroke-width="7" fill="none" stroke-linecap="round"/><path d="M24 8 q40.8 32 62.400000000000006 43" stroke="#3C3835" stroke-width="7" fill="none" stroke-linecap="round"/><path d="M18 20 q30.599999999999998 29 46.800000000000004 41" stroke="#3C3835" stroke-width="7" fill="none" stroke-linecap="round"/><path d="M10 30 q17.0 25 26.0 38" stroke="#3C3835" stroke-width="7" fill="none" stroke-linecap="round"/><ellipse cx="0" cy="15" rx="34" ry="30" fill="#3C3835"/><ellipse cx="0" cy="10" rx="31" ry="26" fill="#5D5752" opacity=".55"/><circle cx="-11" cy="5" r="10" fill="#EEE2D0"/><circle cx="12" cy="5" r="10" fill="#EEE2D0"/><circle cx="-8" cy="7" r="4" fill="#181312"/><circle cx="9" cy="7" r="4" fill="#181312"/><path d="M-9 23 Q1 31 13 22" stroke="#D79C83" stroke-width="3" fill="none" stroke-linecap="round"/><circle cx="-18" cy="-10" r="2" fill="#A39A90"/><circle cx="22" cy="-5" r="2" fill="#A39A90"/><circle cx="5" cy="-14" r="2" fill="#A39A90"/></g></g><rect x="86" y="86" width="470" height="220" rx="42" fill="#201A23" opacity=".52" stroke="#D9B56B" stroke-width="2" stroke-dasharray="8 10"/></svg>