<svg xmlns="http://www.w3.org/2000/svg" viewBox="0 0 1200 900" role="img" aria-label="Text-free GlimmerTales illustration"><title>Text-free GlimmerTales illustration</title><defs><radialGradient id="sky" cx="50%" cy="20%" r="80%"><stop offset="0" stop-color="#304265"/><stop offset="1" stop-color="#151625"/></radialGradient><filter id="soft"><feGaussianBlur stdDeviation="0.25"/></filter></defs><rect width="1200" height="900" fill="#6AA7D8"/><circle cx="980" cy="120" r="70" fill="#F7D36D" opacity=".85"/><path d="M0 630 C180 540 320 610 510 520 C760 405 940 560 1200 455 L1200 900 L0 900z" fill="#4E8E61"/><path d="M0 715 C200 660 360 715 560 650 C780 575 960 690 1200 610 L1200 900 L0 900z" fill="#2E6E49"/><ellipse cx="600" cy="815" rx="520" ry="95" fill="#8B6840" opacity=".55"/><g opacity=".9"><circle cx="120" cy="760" r="22" fill="#C86A6A"/><circle cx="1010" cy="735" r="20" fill="#B87A56"/><circle cx="1080" cy="795" r="24" fill="#6F7D3B"/><circle cx="190" cy="805" r="28" fill="#7B5D8C"/></g><g><g class="pip" transform="translate(600 430) scale(3.0)"><ellipse cx="0" cy="42" rx="34" ry="48" fill="#E99632"/><ellipse cx="0" cy="54" rx="20" ry="30" fill="#F3D6A7"/><circle cx="0" cy="-14" r="35" fill="#E99632"/><circle cx="-23" cy="-42" r="13" fill="#E99632"/><circle cx="23" cy="-42" r="13" fill="#E99632"/><circle cx="-23" cy="-42" r="7" fill="#E7A58E"/><circle cx="23" cy="-42" r="7" fill="#E7A58E"/><ellipse cx="0" cy="0" rx="20" ry="15" fill="#F3D6A7"/><path d="M-27 -25 q13 7 25 0 M2 -28 q16 6 28 0 M-31 -8 q12 4 22 1 M9 -9 q12 4 23 -1" stroke="#2A1C17" stroke-width="4" fill="none" stroke-linecap="round"/><circle cx="-12" cy="-17" r="8" fill="#FFF7EA"/><circle cx="13" cy="-17" r="8" fill="#FFF7EA"/><circle cx="-9" cy="-15" r="4" fill="#6A3C1F"/><circle cx="10" cy="-15" r="4" fill="#6A3C1F"/><path d="M0 -4 l7 5 l-7 5 l-7 -5z" fill="#D96B4A"/><path d="M-8 11 Q0 17 8 11" stroke="#2A1C17" stroke-width="2" fill="none" stroke-linecap="round"/><path d="M-27 35 q-18 18 -21 38 M27 35 q19 18 20 38" stroke="#E99632" stroke-width="12" fill="none" stroke-linecap="round"/><path d="M-10 89 q-5 16 -4 26 M14 89 q6 16 4 26" stroke="#E99632" stroke-width="13" fill="none" stroke-linecap="round"/><path d="M31 52 q31 14 21 49" stroke="#E99632" stroke-width="11" fill="none" stroke-linecap="round"/></g></g><rect x="86" y="86" width="470" height="220" rx="42" fill="#201A23" opacity=".52" stroke="#D9B56B" stroke-width="2" stroke-dasharray="8 10"/></svg>