<svg xmlns="http://www.w3.org/2000/svg" viewBox="0 0 1200 900" role="img" aria-label="Text-free GlimmerTales reference illustration"><title>Text-free GlimmerTales reference illustration</title><defs>
  <radialGradient id="skyBubble" cx="35%" cy="18%" r="95%"><stop offset="0" stop-color="#BFE9FF"/><stop offset="0.45" stop-color="#BCA7FF"/><stop offset="1" stop-color="#6157B8"/></radialGradient>
  <linearGradient id="meadow" x1="0" y1="0" x2="1" y2="1"><stop offset="0" stop-color="#8FE7A6"/><stop offset="1" stop-color="#47B883"/></linearGradient>
  <linearGradient id="meadowDark" x1="0" y1="0" x2="1" y2="1"><stop offset="0" stop-color="#5CCB8C"/><stop offset="1" stop-color="#28896C"/></linearGradient>
  <radialGradient id="moonGlow" cx="50%" cy="50%" r="60%"><stop offset="0" stop-color="#FFF6B8"/><stop offset="1" stop-color="#FFD56E"/></radialGradient>
  <linearGradient id="daisyShell" x1="0" y1="0" x2="1" y2="1"><stop offset="0" stop-color="#FF7A8A"/><stop offset="0.55" stop-color="#F94E5F"/><stop offset="1" stop-color="#D92D45"/></linearGradient>
  <linearGradient id="dinoSkin" x1="0" y1="0" x2="1" y2="1"><stop offset="0" stop-color="#A9F36E"/><stop offset="0.55" stop-color="#6ED95E"/><stop offset="1" stop-color="#39A870"/></linearGradient>
  <linearGradient id="pipFur" x1="0" y1="0" x2="1" y2="1"><stop offset="0" stop-color="#FFC05E"/><stop offset="0.52" stop-color="#FF9238"/><stop offset="1" stop-color="#E46E2E"/></linearGradient>
  <linearGradient id="itsyFuzz" x1="0" y1="0" x2="1" y2="1"><stop offset="0" stop-color="#8A7CE8"/><stop offset="0.55" stop-color="#6558C6"/><stop offset="1" stop-color="#4A3B99"/></linearGradient>
  <filter id="softShadow" x="-40%" y="-40%" width="180%" height="180%"><feDropShadow dx="0" dy="14" stdDeviation="12" flood-color="#2C2156" flood-opacity="0.28"/></filter>
  <filter id="glow" x="-60%" y="-60%" width="220%" height="220%"><feGaussianBlur stdDeviation="9" result="blur"/><feMerge><feMergeNode in="blur"/><feMergeNode in="SourceGraphic"/></feMerge></filter>
  <pattern id="sprinkles" width="80" height="80" patternUnits="userSpaceOnUse"><circle cx="16" cy="14" r="2" fill="#FFFFFF" opacity=".35"/><circle cx="66" cy="26" r="2.4" fill="#FFE48A" opacity=".35"/><circle cx="42" cy="62" r="1.9" fill="#FF9BC3" opacity=".35"/></pattern>
</defs><rect width="1200" height="900" fill="url(#skyBubble)"/><rect width="1200" height="900" fill="url(#sprinkles)" opacity=".55"/><circle cx="990" cy="120" r="58" fill="url(#moonGlow)" opacity=".92" filter="url(#glow)"/><path d="M0 602 C180 520 340 584 520 505 C760 405 960 535 1200 445 L1200 900 L0 900z" fill="url(#meadow)"/><path d="M0 724 C205 650 375 715 590 642 C810 565 980 690 1200 615 L1200 900 L0 900z" fill="url(#meadowDark)"/><ellipse cx="600" cy="815" rx="520" ry="88" fill="#FFF1A6" opacity=".30"/><g><g transform="translate(600 430) scale(2.9)" filter="url(#softShadow)">
    <path d="M31 51 q42 18 32 62" stroke="url(#pipFur)" stroke-width="13" fill="none" stroke-linecap="round"/><ellipse cx="0" cy="42" rx="38" ry="52" fill="url(#pipFur)"/><ellipse cx="0" cy="58" rx="23" ry="32" fill="#FFE0A9"/>
    <circle cx="0" cy="-16" r="40" fill="url(#pipFur)"/><circle cx="-26" cy="-48" r="15" fill="url(#pipFur)"/><circle cx="26" cy="-48" r="15" fill="url(#pipFur)"/><circle cx="-26" cy="-48" r="8" fill="#FFB2AC"/><circle cx="26" cy="-48" r="8" fill="#FFB2AC"/>
    <ellipse cx="0" cy="0" rx="24" ry="17" fill="#FFE0A9"/>
    <path d="M-31 -30 q14 8 27 1 M4 -31 q17 7 31 0 M-36 -10 q13 5 25 1 M13 -11 q14 5 27 -1 M-27 28 q13 5 25 0 M15 29 q15 4 29 -2" stroke="#513022" stroke-width="5" fill="none" stroke-linecap="round"/>
    <g><ellipse cx="-13" cy="-20" rx="9.9" ry="11.700000000000001" fill="#FFFDF5"/><circle cx="-11.2" cy="-19.1" r="4.5" fill="#5B351E"/><circle cx="-8.5" cy="-23.6" r="1.9800000000000002" fill="#FFFFFF"/></g><g><ellipse cx="14" cy="-20" rx="9.9" ry="11.700000000000001" fill="#FFFDF5"/><circle cx="15.8" cy="-19.1" r="4.5" fill="#5B351E"/><circle cx="18.5" cy="-23.6" r="1.9800000000000002" fill="#FFFFFF"/></g><path d="M0 -5 l8 6 l-8 6 l-8 -6z" fill="#E66A55"/><path d="M-9 13 Q0 20 10 12" stroke="#513022" stroke-width="2.5" fill="none" stroke-linecap="round"/>
    <circle cx="-21" cy="2" r="4" fill="#FFB2AC" opacity=".55"/><circle cx="22" cy="2" r="4" fill="#FFB2AC" opacity=".55"/>
  </g></g><rect x="70" y="76" width="520" height="190" rx="42" fill="#FFFFFF" opacity=".30" stroke="#FFF2A0" stroke-width="2" stroke-dasharray="10 11"/></svg>