<svg xmlns="http://www.w3.org/2000/svg" viewBox="0 0 1200 900" role="img" aria-label="Text-free GlimmerTales reference illustration"><title>Text-free GlimmerTales reference illustration</title><defs><radialGradient id="sky" cx="50%" cy="18%" r="80%"><stop offset="0" stop-color="#334465"/><stop offset="1" stop-color="#111622"/></radialGradient><filter id="glow" x="-50%" y="-50%" width="200%" height="200%"><feGaussianBlur stdDeviation="10" result="blur"/><feMerge><feMergeNode in="blur"/><feMergeNode in="SourceGraphic"/></feMerge></filter></defs><rect width="1200" height="900" fill="url(#sky)"/><circle cx="972" cy="128" r="56" fill="#F4DDA2" opacity=".86"/><circle cx="140" cy="120" r="3" fill="#f8e7b8"/><circle cx="270" cy="220" r="2" fill="#f8e7b8"/><circle cx="750" cy="175" r="2.5" fill="#f8e7b8"/><path d="M0 645 C185 555 335 620 520 535 C760 420 945 570 1200 470 L1200 900 L0 900z" fill="#253b35"/><path d="M0 725 C215 665 360 720 560 650 C785 575 970 700 1200 620 L1200 900 L0 900z" fill="#162a27"/><ellipse cx="600" cy="820" rx="530" ry="95" fill="#57412d" opacity=".66"/><ellipse cx="615" cy="575" rx="225" ry="82" fill="#4f7a55" transform="rotate(-10 615 575)" opacity=".88"/><circle cx="620" cy="560" r="56" fill="#f1c777" opacity=".34" filter="url(#glow)"/><path d="M420 606 C520 545 710 530 826 582" stroke="#d9c46d" stroke-width="9" fill="none" opacity=".55"/><circle cx="575" cy="492" r="36" fill="#f4dda2" opacity=".42" filter="url(#glow)"/><g><g transform="translate(520 530) scale(1.9)"><path d="M-30 -5 q-51.0 35 -78.0 45" stroke="#3C3835" stroke-width="7" fill="none" stroke-linecap="round"/><path d="M-24 8 q-40.8 32 -62.400000000000006 43" stroke="#3C3835" stroke-width="7" fill="none" stroke-linecap="round"/><path d="M-18 20 q-30.599999999999998 29 -46.800000000000004 41" stroke="#3C3835" stroke-width="7" fill="none" stroke-linecap="round"/><path d="M-10 30 q-17.0 25 -26.0 38" stroke="#3C3835" stroke-width="7" fill="none" stroke-linecap="round"/><path d="M30 -5 q51.0 35 78.0 45" stroke="#3C3835" stroke-width="7" fill="none" stroke-linecap="round"/><path d="M24 8 q40.8 32 62.400000000000006 43" stroke="#3C3835" stroke-width="7" fill="none" stroke-linecap="round"/><path d="M18 20 q30.599999999999998 29 46.800000000000004 41" stroke="#3C3835" stroke-width="7" fill="none" stroke-linecap="round"/><path d="M10 30 q17.0 25 26.0 38" stroke="#3C3835" stroke-width="7" fill="none" stroke-linecap="round"/><ellipse cx="0" cy="15" rx="34" ry="30" fill="#3C3835"/><ellipse cx="0" cy="10" rx="31" ry="26" fill="#5D5752" opacity=".55"/><circle cx="-11" cy="5" r="10" fill="#EEE2D0"/><circle cx="12" cy="5" r="10" fill="#EEE2D0"/><circle cx="-8" cy="7" r="4" fill="#181312"/><circle cx="9" cy="7" r="4" fill="#181312"/><path d="M-9 23 Q1 31 13 22" stroke="#D79C83" stroke-width="3" fill="none" stroke-linecap="round"/></g><g transform="translate(720 530) scale(1.25)"><ellipse cx="0" cy="10" rx="24" ry="28" fill="#181312"/><ellipse cx="-13" cy="16" rx="17" ry="24" fill="#D9412E" transform="rotate(-18 -13 16)"/><ellipse cx="13" cy="16" rx="17" ry="24" fill="#D9412E" transform="rotate(18 13 16)"/><circle cx="-18" cy="10" r="5" fill="#181312"/><circle cx="4" cy="28" r="5" fill="#181312"/><circle cx="17" cy="8" r="5" fill="#181312"/><circle cx="-2" cy="-15" r="22" fill="#181312"/><ellipse cx="-2" cy="-8" rx="15" ry="13" fill="#F2A68F"/><circle cx="-10" cy="-18" r="7" fill="#FFF7EA"/><circle cx="8" cy="-18" r="7" fill="#FFF7EA"/><circle cx="-8" cy="-17" r="3" fill="#5B351E"/><circle cx="10" cy="-17" r="3" fill="#5B351E"/><circle cx="-14" cy="-5" r="4" fill="#F4A0A0" opacity=".75"/><circle cx="10" cy="-5" r="4" fill="#F4A0A0" opacity=".75"/><path d="M-8 2 Q-1 8 8 1" fill="none" stroke="#321" stroke-width="2" stroke-linecap="round"/><path d="M-12 -35 Q-22 -49 -25 -57" fill="none" stroke="#181312" stroke-width="3" stroke-linecap="round"/><path d="M9 -35 Q20 -49 23 -57" fill="none" stroke="#181312" stroke-width="3" stroke-linecap="round"/><circle cx="-26" cy="-58" r="4" fill="#181312"/><circle cx="24" cy="-58" r="4" fill="#181312"/></g><g transform="translate(850 535) scale(1.35)"><ellipse cx="0" cy="42" rx="34" ry="48" fill="#E99632"/><ellipse cx="0" cy="54" rx="20" ry="30" fill="#F3D6A7"/><circle cx="0" cy="-14" r="35" fill="#E99632"/><circle cx="-23" cy="-42" r="13" fill="#E99632"/><circle cx="23" cy="-42" r="13" fill="#E99632"/><circle cx="-23" cy="-42" r="7" fill="#E7A58E"/><circle cx="23" cy="-42" r="7" fill="#E7A58E"/><ellipse cx="0" cy="0" rx="20" ry="15" fill="#F3D6A7"/><path d="M-27 -25 q13 7 25 0 M2 -28 q16 6 28 0 M-31 -8 q12 4 22 1 M9 -9 q12 4 23 -1" stroke="#2A1C17" stroke-width="4" fill="none" stroke-linecap="round"/><circle cx="-12" cy="-17" r="8" fill="#FFF7EA"/><circle cx="13" cy="-17" r="8" fill="#FFF7EA"/><circle cx="-9" cy="-15" r="4" fill="#6A3C1F"/><circle cx="10" cy="-15" r="4" fill="#6A3C1F"/><path d="M0 -4 l7 5 l-7 5 l-7 -5z" fill="#D96B4A"/><path d="M-8 11 Q0 17 8 11" stroke="#2A1C17" stroke-width="2" fill="none" stroke-linecap="round"/><path d="M31 52 q31 14 21 49" stroke="#E99632" stroke-width="11" fill="none" stroke-linecap="round"/></g></g><rect x="92" y="642" width="1016" height="180" rx="42" fill="#201a23" opacity=".55" stroke="#d9b56b" stroke-width="2" stroke-dasharray="8 10"/></svg>