<svg xmlns="http://www.w3.org/2000/svg" viewBox="0 0 1200 900" role="img" aria-label="Text-free GlimmerTales illustration"><title>Text-free GlimmerTales illustration</title><defs><radialGradient id="sky" cx="50%" cy="20%" r="80%"><stop offset="0" stop-color="#304265"/><stop offset="1" stop-color="#151625"/></radialGradient><filter id="soft"><feGaussianBlur stdDeviation="0.25"/></filter></defs><rect width="1200" height="900" fill="url(#sky)"/><circle cx="975" cy="130" r="56" fill="#F4DDA2" opacity=".86"/><path d="M0 645 C185 555 335 620 520 535 C760 420 945 570 1200 470 L1200 900 L0 900z" fill="#253B35"/><path d="M0 725 C215 665 360 720 560 650 C785 575 970 700 1200 620 L1200 900 L0 900z" fill="#162A27"/><ellipse cx="600" cy="820" rx="530" ry="95" fill="#57412D" opacity=".72"/><circle cx="155" cy="125" r="3" fill="#F8E7B8"/><circle cx="255" cy="210" r="2" fill="#F8E7B8"/><circle cx="760" cy="178" r="2.5" fill="#F8E7B8"/><circle cx="1070" cy="250" r="2" fill="#F8E7B8"/><g opacity=".9"><circle cx="120" cy="760" r="22" fill="#C86A6A"/><circle cx="1010" cy="735" r="20" fill="#B87A56"/><circle cx="1080" cy="795" r="24" fill="#6F7D3B"/><circle cx="190" cy="805" r="28" fill="#7B5D8C"/></g><ellipse cx="850" cy="600" rx="150" ry="105" fill="#08090C" opacity=".74"/><path d="M710 640 C750 555 944 555 990 640" stroke="#5A4636" stroke-width="44" fill="none" opacity=".8"/><g><g class="daisy" transform="translate(420 610) scale(1.25)"><ellipse cx="0" cy="10" rx="24" ry="28" fill="#181312"/><ellipse cx="-13" cy="16" rx="17" ry="24" fill="#D9412E" transform="rotate(-18 -13 16)"/><ellipse cx="13" cy="16" rx="17" ry="24" fill="#D9412E" transform="rotate(18 13 16)"/><circle cx="-18" cy="10" r="5" fill="#181312"/><circle cx="4" cy="28" r="5" fill="#181312"/><circle cx="17" cy="8" r="5" fill="#181312"/><circle cx="-2" cy="-15" r="22" fill="#181312"/><ellipse cx="-2" cy="-8" rx="15" ry="13" fill="#F2A68F"/><circle cx="-10" cy="-18" r="7" fill="#FFF7EA"/><circle cx="8" cy="-18" r="7" fill="#FFF7EA"/><circle cx="-8" cy="-17" r="3" fill="#5B351E"/><circle cx="10" cy="-17" r="3" fill="#5B351E"/><circle cx="-14" cy="-5" r="4" fill="#F4A0A0" opacity=".75"/><circle cx="10" cy="-5" r="4" fill="#F4A0A0" opacity=".75"/><path d="M-8 2 Q-1 8 8 1" fill="none" stroke="#321" stroke-width="2" stroke-linecap="round"/><path d="M-12 -35 Q-22 -49 -25 -57" fill="none" stroke="#181312" stroke-width="3" stroke-linecap="round"/><path d="M9 -35 Q20 -49 23 -57" fill="none" stroke="#181312" stroke-width="3" stroke-linecap="round"/><circle cx="-26" cy="-58" r="4" fill="#181312"/><circle cx="24" cy="-58" r="4" fill="#181312"/><path d="M-22 16 q-20 8 -24 22" stroke="#181312" stroke-width="4" fill="none" stroke-linecap="round"/><path d="M21 15 q19 7 24 21" stroke="#181312" stroke-width="4" fill="none" stroke-linecap="round"/><path d="M-12 36 q-8 12 -7 22" stroke="#181312" stroke-width="4" fill="none" stroke-linecap="round"/><path d="M14 36 q8 12 6 22" stroke="#181312" stroke-width="4" fill="none" stroke-linecap="round"/></g><g class="dino" transform="translate(670 535) scale(1.1)"><ellipse cx="18" cy="40" rx="54" ry="70" fill="#78B83E"/><ellipse cx="18" cy="55" rx="30" ry="48" fill="#D9C46D" opacity=".9"/><ellipse cx="22" cy="-34" rx="64" ry="45" fill="#78B83E"/><ellipse cx="52" cy="-28" rx="42" ry="33" fill="#78B83E"/><circle cx="-25" cy="-35" r="8" fill="#3F7D37" opacity=".75"/><circle cx="8" cy="-72" r="7" fill="#3F7D37" opacity=".65"/><circle cx="48" cy="9" r="9" fill="#3F7D37" opacity=".65"/><circle cx="-15" cy="35" r="7" fill="#3F7D37" opacity=".65"/><path d="M-38 -76 l13 -24 l16 24z M-4 -83 l15 -26 l16 26z M31 -79 l14 -25 l16 25z" fill="#E46D2D"/><path d="M-35 94 q-9 21 -24 23" stroke="#78B83E" stroke-width="20" fill="none" stroke-linecap="round"/><path d="M64 94 q12 20 30 23" stroke="#78B83E" stroke-width="20" fill="none" stroke-linecap="round"/><ellipse cx="-44" cy="120" rx="19" ry="9" fill="#F0E2B8"/><ellipse cx="92" cy="120" rx="19" ry="9" fill="#F0E2B8"/><circle cx="0" cy="-58" r="13" fill="#FFF7EA"/><circle cx="45" cy="-56" r="13" fill="#FFF7EA"/><circle cx="4" cy="-56" r="6" fill="#68401F"/><circle cx="41" cy="-55" r="6" fill="#68401F"/><ellipse cx="65" cy="-30" rx="5" ry="8" fill="#3A5D2A"/><ellipse cx="83" cy="-27" rx="5" ry="8" fill="#3A5D2A"/><path d="M30 -15 Q49 4 78 -10" fill="none" stroke="#3B271A" stroke-width="5" stroke-linecap="round"/><path d="M-27 28 q-30 8 -38 30" stroke="#78B83E" stroke-width="14" fill="none" stroke-linecap="round"/><path d="M61 28 q28 10 40 30" stroke="#78B83E" stroke-width="14" fill="none" stroke-linecap="round"/><path d="M65 48 q66 19 92 72" stroke="#78B83E" stroke-width="25" fill="none" stroke-linecap="round"/></g><g class="itsy" transform="translate(830 650) scale(1.55)"><path d="M-30 -5 q-51.0 35 -78.0 45" stroke="#3C3835" stroke-width="7" fill="none" stroke-linecap="round"/><path d="M-24 8 q-40.8 32 -62.400000000000006 43" stroke="#3C3835" stroke-width="7" fill="none" stroke-linecap="round"/><path d="M-18 20 q-30.599999999999998 29 -46.800000000000004 41" stroke="#3C3835" stroke-width="7" fill="none" stroke-linecap="round"/><path d="M-10 30 q-17.0 25 -26.0 38" stroke="#3C3835" stroke-width="7" fill="none" stroke-linecap="round"/><path d="M30 -5 q51.0 35 78.0 45" stroke="#3C3835" stroke-width="7" fill="none" stroke-linecap="round"/><path d="M24 8 q40.8 32 62.400000000000006 43" stroke="#3C3835" stroke-width="7" fill="none" stroke-linecap="round"/><path d="M18 20 q30.599999999999998 29 46.800000000000004 41" stroke="#3C3835" stroke-width="7" fill="none" stroke-linecap="round"/><path d="M10 30 q17.0 25 26.0 38" stroke="#3C3835" stroke-width="7" fill="none" stroke-linecap="round"/><ellipse cx="0" cy="15" rx="34" ry="30" fill="#3C3835"/><ellipse cx="0" cy="10" rx="31" ry="26" fill="#5D5752" opacity=".55"/><circle cx="-11" cy="5" r="10" fill="#EEE2D0"/><circle cx="12" cy="5" r="10" fill="#EEE2D0"/><circle cx="-8" cy="7" r="4" fill="#181312"/><circle cx="9" cy="7" r="4" fill="#181312"/><path d="M-9 23 Q1 31 13 22" stroke="#D79C83" stroke-width="3" fill="none" stroke-linecap="round"/><circle cx="-18" cy="-10" r="2" fill="#A39A90"/><circle cx="22" cy="-5" r="2" fill="#A39A90"/><circle cx="5" cy="-14" r="2" fill="#A39A90"/></g></g><rect x="86" y="86" width="470" height="220" rx="42" fill="#201A23" opacity=".52" stroke="#D9B56B" stroke-width="2" stroke-dasharray="8 10"/></svg>