<svg xmlns="http://www.w3.org/2000/svg" viewBox="0 0 1200 900" role="img" aria-label="Text-free Mini Dream Time gentle hero reference illustration"><title>Text-free Mini Dream Time gentle hero reference illustration</title><defs><radialGradient id="sky" cx="48%" cy="12%" r="95%"><stop offset="0" stop-color="#FDF6B6"/><stop offset=".42" stop-color="#BEEBFF"/><stop offset="1" stop-color="#7467D8"/></radialGradient><linearGradient id="blanket" x1="0" y1="0" x2="1" y2="1"><stop offset="0" stop-color="#4E47B9"/><stop offset="1" stop-color="#251C73"/></linearGradient><linearGradient id="nova" x1="0" y1="0" x2="1" y2="1"><stop offset="0" stop-color="#FFD36E"/><stop offset="1" stop-color="#FF8FC8"/></linearGradient><linearGradient id="ollie" x1="0" y1="0" x2="1" y2="1"><stop offset="0" stop-color="#9AF2FF"/><stop offset="1" stop-color="#5BA8FF"/></linearGradient><linearGradient id="mica" x1="0" y1="0" x2="1" y2="1"><stop offset="0" stop-color="#B8FFA5"/><stop offset="1" stop-color="#56C98F"/></linearGradient><filter id="shadow" x="-40%" y="-40%" width="180%" height="180%"><feDropShadow dx="0" dy="16" stdDeviation="13" flood-color="#251C73" flood-opacity=".28"/></filter><filter id="glow" x="-60%" y="-60%" width="220%" height="220%"><feGaussianBlur stdDeviation="8" result="b"/><feMerge><feMergeNode in="b"/><feMergeNode in="SourceGraphic"/></feMerge></filter></defs><rect width="1200" height="900" fill="url(#sky)"/><circle cx="1000" cy="125" r="56" fill="#FFF6B8" filter="url(#glow)"/><path d="M0 600 C190 535 340 575 510 505 C720 420 930 525 1200 455 L1200 900 L0 900z" fill="#7BE2AB"/><path d="M0 724 C240 650 405 710 610 642 C820 575 1010 680 1200 615 L1200 900 L0 900z" fill="#4FBF91"/><path d="M245 447 C430 352 760 388 955 490 C850 588 410 552 245 447z" fill="url(#blanket)" opacity=".82" filter="url(#shadow)"/><circle cx="385" cy="330" r="18" fill="#FFF6B8"/><circle cx="705" cy="315" r="14" fill="#FFF6B8"/><circle cx="885" cy="382" r="12" fill="#FFF6B8"/><g filter="url(#shadow)"><g transform="translate(401.0 520) scale(1.42)"><path d="M-55 -20 q55 -62 110 0 v70 q-58 42 -110 0z" fill="url(#nova)"/><circle cx="0" cy="-34" r="38" fill="#6D3C87"/><ellipse cx="0" cy="-27" rx="25" ry="21" fill="#FFD7BE"/><ellipse cx="-12" cy="-36" rx="7" ry="9" fill="#fff"/><ellipse cx="14" cy="-36" rx="7" ry="9" fill="#fff"/><circle cx="-10" cy="-35" r="3" fill="#51304D"/><circle cx="16" cy="-35" r="3" fill="#51304D"/><path d="M-12 -16 Q0 -8 13 -17" stroke="#51304D" stroke-width="3" fill="none" stroke-linecap="round"/><path d="M-70 -3 q-36 35 -56 76 M70 -3 q35 34 56 76" stroke="#FF8FC8" stroke-width="18" fill="none" stroke-linecap="round"/></g><g transform="translate(631.0 485) scale(1.34)"><path d="M-58 -12 q58 -65 116 0 v82 q-64 44 -116 0z" fill="url(#ollie)"/><circle cx="0" cy="-38" r="40" fill="#315DAA"/><ellipse cx="0" cy="-30" rx="27" ry="22" fill="#FFE0C4"/><ellipse cx="-12" cy="-39" rx="7" ry="9" fill="#fff"/><ellipse cx="13" cy="-39" rx="7" ry="9" fill="#fff"/><circle cx="-10" cy="-38" r="3" fill="#25355B"/><circle cx="15" cy="-38" r="3" fill="#25355B"/><path d="M-10 -17 Q0 -10 12 -18" stroke="#25355B" stroke-width="3" fill="none" stroke-linecap="round"/><path d="M-78 4 q-40 24 -58 66 M78 4 q42 24 60 66" stroke="#5BA8FF" stroke-width="18" fill="none" stroke-linecap="round"/></g><g transform="translate(820.5 535) scale(1.2)"><path d="M-50 -10 q50 -56 100 0 v68 q-55 38 -100 0z" fill="url(#mica)"/><circle cx="0" cy="-36" r="36" fill="#2C8B72"/><ellipse cx="0" cy="-28" rx="24" ry="20" fill="#FFE0C4"/><ellipse cx="-11" cy="-37" rx="6" ry="8" fill="#fff"/><ellipse cx="12" cy="-37" rx="6" ry="8" fill="#fff"/><circle cx="-9" cy="-36" r="3" fill="#26423B"/><circle cx="14" cy="-36" r="3" fill="#26423B"/><path d="M-10 -16 Q0 -9 11 -17" stroke="#26423B" stroke-width="3" fill="none" stroke-linecap="round"/><path d="M-68 0 q-34 30 -48 69 M68 0 q34 30 48 69" stroke="#56C98F" stroke-width="16" fill="none" stroke-linecap="round"/></g></g><rect x="70" y="76" width="520" height="190" rx="42" fill="#FFFFFF" opacity=".30" stroke="#FFF2A0" stroke-width="2" stroke-dasharray="10 11"/></svg>